<svg width="512" height="512" viewBox="0 0 512 512" fill="none" xmlns="http://www.w3.org/2000/svg">
<g clip-path="url(#clip0_82_12823)">
<rect width="512" height="512" rx="256" fill="white"/>
<path fill-rule="evenodd" clip-rule="evenodd" d="M143.969 268.085C145.5 254.599 143.519 226.41 143.386 224.698C142.546 213.871 147.607 171.119 157.174 175.058C173.221 162.323 194.596 159.511 214.582 158.168C256.097 155.377 300.261 161.784 332.318 189.79C348.172 204.334 363.606 225.487 362.365 247.512C376.769 268.39 397.075 297.028 379.128 321.436C373.028 329.234 363.333 332.138 355.669 338.043C340.255 350.506 330.584 368.392 315.023 380.781C273.798 417.915 203.797 425.672 163.294 383.435C131.973 352.845 137.037 307.082 142.546 268.085C146.25 241.867 140.982 294.395 143.969 268.085Z" fill="white"/>
<path fill-rule="evenodd" clip-rule="evenodd" d="M270.04 100.978C258.937 98.7321 247.536 97.3346 236.198 97.7553L235.324 97.7893C226.793 98.1311 215.989 98.8872 208.547 103.86C208.119 103.429 207.43 103.208 206.806 103.507C197.962 107.738 188.235 110.798 178.923 113.838C169.653 116.863 160.037 118.86 150.322 119.665C146.667 119.968 143.539 123.925 145.853 127.473C146.403 128.319 146.94 129.173 147.474 130.029C146.581 129.936 145.687 129.839 144.794 129.749C141.854 129.452 138.917 132.597 139.092 135.466C139.2 137.271 139.395 139.054 139.682 140.816C138.562 140.792 137.449 140.961 136.374 141.416C130.928 143.721 131.308 150.223 131.715 155.17C132.28 162.034 134.841 169.305 139.597 174.443C136.046 178.14 133.532 182.554 132.033 187.798C130.946 191.626 130.34 195.705 130.639 199.69L130.734 200.883C131.104 205.209 131.838 209.997 134.942 213.109C136.535 214.713 138.498 215.297 140.37 215.112C139.238 225.079 138.513 235.104 137.83 245.093L137.51 249.867C135.987 272.953 134.842 296.19 135.141 319.314C135.419 340.925 139.679 361.901 152.902 379.447C164.944 395.425 182.234 407.203 201.794 411.681C212.335 414.098 223.097 414.269 233.766 412.729C238.937 411.98 244.143 410.832 249.051 409.021C254.485 407.011 258.39 404.052 262.046 399.617C263.775 397.514 262.943 393.036 259.499 393.457C254.292 394.09 249.538 394.853 244.546 396.397L243.831 396.623C238.858 398.22 233.709 399.41 228.51 399.917C217.862 400.95 207.051 399.91 196.851 396.673C180.243 391.397 165.939 379.639 156.771 364.867C145.889 347.356 144.658 327.478 144.815 307.343C144.984 285.249 145.701 263.142 146.871 241.071L147.07 237.393C147.689 226.035 148.286 214.67 148.812 203.305C148.975 199.74 149.224 196.147 149.673 192.589C153.776 190.179 157.454 186.857 159.851 182.757C164.666 184.753 169.73 186.193 174.39 187.341C185.183 190.002 196.388 190.648 207.373 188.982C210.336 190.209 213.359 191.288 216.427 192.216C217.256 192.585 218.086 192.947 218.914 193.302C226.312 196.475 233.816 199.163 241.625 201.13L243.544 201.61C247.653 202.625 252.117 203.626 256.491 203.94C257.209 204.218 257.984 204.453 258.831 204.66C262.814 205.629 266.947 205.936 271.029 205.594C275.006 205.259 277.879 201.23 275.688 197.459C274.088 194.706 272.473 191.961 270.844 189.224C276.513 191.591 282.367 193.559 288.27 195.227C294.231 196.91 300.276 198.328 306.33 199.633C309.566 200.325 312.816 200.938 316.045 201.63C318.357 202.121 321.906 202.378 323.791 203.904C325.875 205.579 326.465 209.487 327.255 211.896C328.294 215.026 329.268 218.171 330.157 221.351C331.928 227.696 333.379 234.134 334.502 240.637C335.626 247.146 336.381 253.72 336.801 260.315C337.22 266.903 337.035 273.534 337.71 280.093C338.074 283.572 341.8 285.362 344.553 282.931C344.876 282.646 345.201 282.357 345.523 282.066L346.004 281.626C348.359 279.487 350.642 277.22 352.526 274.667C352.867 274.197 353.195 273.705 353.5 273.206C353.55 273.206 353.593 273.191 353.643 273.156L354.165 272.762C359.918 268.47 369.528 262.874 375.137 270.004C376.925 272.276 377.84 275.168 378.599 277.959L379.932 282.953C380.794 286.213 381.605 289.491 382.08 292.827C383.154 300.299 382.613 308.912 377.484 314.901C375.436 317.296 372.612 319.008 369.462 319.457C367.704 319.699 365.969 319.4 364.226 319.179C362.455 318.958 360.749 319.314 358.977 319.143C356.161 318.865 354.93 322.245 355.983 324.369C356.552 325.51 357.221 326.494 357.981 327.328C357.37 327.856 356.786 328.426 356.225 329.025C354.56 329.56 353.067 330.708 351.95 332.226C351.047 333.453 350.578 334.786 350.499 336.19C350.4 336.54 350.315 336.896 350.236 337.26L348.71 339.742C348.374 340.287 348.04 340.825 347.704 341.352C343.821 347.484 339.51 352.675 334.154 357.566C328.997 362.271 323.4 366.485 318.556 371.533L317.985 372.132C313.469 376.903 308.708 382.678 310.476 389.614C310.931 391.397 313.414 392.68 315.035 391.475C320.249 387.596 322.874 381.45 327.297 376.745C331.85 371.897 336.893 367.54 341.459 362.706C345.777 358.143 349.184 352.974 351.751 347.284C352.776 348.418 354.269 349.224 356.338 349.537C359.895 350.072 363.21 347.983 364.76 344.896C365.756 345.338 366.773 345.737 367.798 346.051C373.189 347.705 376.581 341.695 374.547 337.253C373.459 334.871 372.101 332.804 370.414 331.064C375.686 330.337 381.049 327.606 384.512 324.198C393.203 315.635 394.398 302.766 392.442 291.323C391.404 285.255 389.612 279.116 387.286 273.42C386.881 272.429 386.446 271.43 385.971 270.446C386.234 270.439 386.504 270.325 386.675 270.104C388.247 267.951 390.159 266.19 391.326 263.78C392.4 261.57 393.595 259.331 394.442 257.028C396.184 252.315 397.037 246.996 397.606 242.013C398.78 231.81 398.325 221.671 396.767 211.533C394.115 194.264 387.707 177.739 378.268 163.238C378.782 162.968 379.275 162.641 379.734 162.254L379.96 162.056L380.329 161.723C383.022 159.279 382.79 154.7 380.329 152.225L379.551 151.444C378.567 150.464 377.719 149.687 376.129 148.62C375.894 148.463 375.654 148.314 375.412 148.176C376.244 146.634 376.533 144.832 375.953 142.844C373.933 135.916 363.989 136.161 357.687 139.182C350.714 132.944 342.983 127.529 334.603 123.145C314.644 112.707 292.076 105.427 270.04 100.978ZM373.209 283.43C369.482 282.211 364.532 284.77 361.182 286.31C356.936 288.264 353.322 291.151 349.823 294.203C348.08 295.729 347.768 298.224 348.201 300.356C348.245 300.57 348.287 300.791 348.337 301.012C348.799 303.286 351.332 305.076 353.572 305.012C358.259 304.883 360.492 300.827 363.146 297.39C363.458 297.946 363.849 298.459 364.334 298.844L364.661 299.101C365.762 299.942 366.976 300.613 368.43 300.548C369.462 300.499 370.45 300.235 371.361 299.757C373.637 298.552 374.639 295.6 374.021 293.198C373.637 291.686 372.755 290.503 371.603 289.683L372.032 289.388C372.951 288.747 373.789 288.071 374.443 287.074L374.59 286.838H374.533C375.244 285.612 374.781 283.943 373.209 283.43Z" fill="black"/>
<path fill-rule="evenodd" clip-rule="evenodd" d="M215.054 355.727C219.835 353.772 224.102 350.51 227.221 346.344C228.305 344.896 228.586 343.366 228.359 341.967C228.103 340.394 227.174 338.969 225.908 338.012C224.638 337.053 223.05 336.58 221.514 336.821C220.179 337.031 218.851 337.763 217.8 339.282L217.58 339.586C215.726 342.101 213.309 344.164 210.556 345.494C207.902 346.776 204.935 347.374 201.863 347.026C196.014 346.364 191.982 343.193 187.697 338.887C187.166 338.343 186.634 337.782 186.1 337.213C185.763 336.696 185.295 336.364 184.775 336.19C184.198 335.997 183.546 336.008 182.948 336.217C182.371 336.418 181.856 336.801 181.51 337.309C181.182 337.793 180.995 338.39 181.056 339.077C181.448 343.54 183.775 347.523 187.082 350.65C190.753 354.123 195.621 356.526 200.203 357.369C205.252 358.297 210.396 357.632 215.054 355.727V355.727ZM197.822 286.882C192.451 290.155 184.267 297.786 190.045 305.899C196.846 313.053 206.638 304.851 211.464 301.141C215.938 298.266 220.966 305.66 216.814 309.017C181.945 334.895 167.795 287.738 195.105 283.034C198.112 282.516 199.229 285.87 197.822 286.882ZM260.307 256.779C259.714 249.396 248.495 247.719 247.379 255.026C246.38 261.571 247.556 267.583 250.497 273.476C253.308 279.106 260.371 276.479 260.905 271.353C261.621 264.481 260.676 261.373 260.307 256.779ZM174.91 253.511C173.346 251.457 171.087 250.055 168.382 250.848C159.928 253.324 162.42 265.354 165.389 271.21C167.002 274.389 172.216 275.196 174.573 272.396C178.414 267.83 180.253 258.712 175.37 254.214C175.238 253.982 175.09 253.747 174.91 253.511ZM250.617 224.47L249.281 224.236C245.15 223.52 240.014 222.832 237.092 226.161C235.542 227.926 235.008 231.207 237.092 232.897C240.756 235.87 244.808 234.718 249.199 234.969C252.818 235.178 256.296 235.778 259.782 236.777C267.429 238.968 273.661 242.968 280.192 247.36C281.05 247.936 281.924 246.837 281.515 246.034C277.745 238.631 270.438 232.55 263.119 228.843C259.213 226.864 254.938 225.223 250.617 224.47ZM182.616 221.154L181.594 221.364C170.471 223.694 156.021 228.349 150.754 239.3C150.553 240.849 150.766 241.181 150.938 241.398L150.995 241.47C151.137 241.655 151.251 241.91 151.92 242.121C152.106 242.077 152.294 242.03 152.484 241.98C154.898 241.345 156.808 240.472 158.657 239.565L160.662 238.575C162.988 237.432 165.335 236.33 167.822 235.517C173.13 233.781 178.589 232.559 184.133 231.906C185.335 231.765 186.492 231.358 187.404 230.661C188.271 230 188.933 229.085 189.235 227.867C189.626 226.292 189.513 225.1 188.67 223.679C188.036 222.612 187.129 221.872 186.088 221.448C185.026 221.015 183.817 220.913 182.616 221.154Z" fill="black"/>
<path fill-rule="evenodd" clip-rule="evenodd" d="M122.231 268.284C129.012 314.264 176.35 319.349 184.761 273.702C183.411 273.11 182.44 271.943 182.643 269.679C182.69 259.731 179.61 249.218 170.658 243.686C161.407 237.978 150.581 237.411 139.875 237.555C119.446 237.068 119.876 254.184 122.231 268.284M192.171 248.287C198.583 248.016 206.694 248.243 212.438 252.159C214.017 247.897 218.119 243.346 222.264 240.912C206.857 241.364 190.997 239.844 175.474 238.664C179.19 241.203 182.647 245.017 184.894 249.427C186.978 248.313 189.964 248.417 192.171 248.287M220.431 273.159C238.21 334.501 282.586 307.764 287.424 299.903C296.151 286.894 297.792 255.27 290.191 246.815C279.31 239.169 263.906 241.137 251.052 240.949C227.437 241.269 210.666 248.35 220.431 273.159M101.239 244.945C106.07 244.312 111.231 244.185 115.722 246.317C117.105 240.425 121.446 235.5 126.347 233.332C126.94 232.587 126.851 232.186 128.878 232.298C141.321 228.549 155.246 230.533 167.204 234.377C186.089 235.971 205.903 237.228 224.947 239.425C242.787 231.394 296.625 230.217 299.971 250.011C304.18 249.38 311.347 246.06 314.884 250.564C340.824 246.155 367.628 252.282 393.681 255.011C400.239 256.221 403.617 269.267 396.173 269.089C391.988 267.951 396.302 260.965 390.666 260.44C365.529 257.688 340.942 253.784 315.548 253.327C316.431 257.722 298.752 258.008 298.491 255.441C298.453 255.461 298.413 255.473 298.375 255.49C302.744 271.811 298.8 295.298 290.905 305.418C279.844 318.669 252.072 322.471 239.758 313.945C223.873 306.076 207.348 266.575 211.99 253.452C203.566 250.776 195.238 251.579 186.495 252.942C188.496 258.61 191.952 272.561 186.981 273.771C187.893 301.471 162.745 318.754 139.562 307.391C119.496 297.949 112.479 268.062 114.934 249.922C112.436 254.76 91.4623 249.493 101.239 244.945" fill="black"/>
</g>
<defs>
<clipPath id="clip0_82_12823">
<rect width="512" height="512" rx="256" fill="white"/>
</clipPath>
</defs>
</svg>
